<svg width="36" height="36" viewBox="0 0 36 36" fill="none" xmlns="http://www.w3.org/2000/svg">
<path d="M21.332 3.44825C21.332 2.27992 20.3854 1.33325 19.217 1.33325H16.782C15.612 1.33325 14.6654 2.27992 14.6654 3.44825C14.6654 4.41159 14.0054 5.23825 13.107 5.59158C12.9648 5.64936 12.8243 5.70825 12.6854 5.76825C11.8004 6.15158 10.7487 6.03492 10.0654 5.35325C9.66855 4.95734 9.1309 4.735 8.57036 4.735C8.00983 4.735 7.47218 4.95734 7.07536 5.35325L5.35203 7.07659C4.95612 7.4734 4.73378 8.01105 4.73378 8.57159C4.73378 9.13212 4.95612 9.66977 5.35203 10.0666C6.03536 10.7499 6.15203 11.7999 5.76536 12.6866C5.70463 12.8261 5.64629 12.9667 5.59036 13.1083C5.23703 14.0066 4.41036 14.6666 3.44703 14.6666C2.2787 14.6666 1.33203 15.6133 1.33203 16.7816V19.2183C1.33203 20.3866 2.2787 21.3333 3.44703 21.3333C4.41036 21.3333 5.23703 21.9933 5.59036 22.8916C5.64814 23.0338 5.70648 23.1744 5.76536 23.3133C6.15036 24.1983 6.0337 25.2499 5.35203 25.9333C4.95612 26.3301 4.73378 26.8677 4.73378 27.4283C4.73378 27.9888 4.95612 28.5264 5.35203 28.9233L7.07536 30.6466C7.47218 31.0425 8.00983 31.2648 8.57036 31.2648C9.1309 31.2648 9.66855 31.0425 10.0654 30.6466C10.7487 29.9633 11.7987 29.8466 12.6854 30.2316C12.8243 30.2927 12.9648 30.3516 13.107 30.4083C14.0054 30.7616 14.6654 31.5883 14.6654 32.5516C14.6654 33.7199 15.612 34.6666 16.7804 34.6666H19.217C20.3854 34.6666 21.332 33.7199 21.332 32.5516C21.332 31.5883 21.992 30.7616 22.8904 30.4066C23.0326 30.351 23.1731 30.2933 23.312 30.2333C24.197 29.8466 25.2487 29.9649 25.9304 30.6466C26.3272 31.043 26.8653 31.2657 27.4262 31.2657C27.9871 31.2657 28.5252 31.043 28.922 30.6466L30.6454 28.9233C31.0413 28.5264 31.2636 27.9888 31.2636 27.4283C31.2636 26.8677 31.0413 26.3301 30.6454 25.9333C29.962 25.2499 29.8454 24.1999 30.2304 23.3133C30.2915 23.1744 30.3504 23.0338 30.407 22.8916C30.7604 21.9933 31.587 21.3333 32.5504 21.3333C33.7187 21.3333 34.6654 20.3866 34.6654 19.2183V16.7833C34.6654 15.6149 33.7187 14.6683 32.5504 14.6683C31.587 14.6683 30.7604 14.0083 30.4054 13.1099C30.3494 12.9684 30.2911 12.8278 30.2304 12.6883C29.847 11.8033 29.9637 10.7516 30.6454 10.0683C31.0413 9.67144 31.2636 9.13379 31.2636 8.57325C31.2636 8.01271 31.0413 7.47506 30.6454 7.07825L28.922 5.35492C28.5252 4.95901 27.9876 4.73667 27.427 4.73667C26.8665 4.73667 26.3288 4.95901 25.932 5.35492C25.2487 6.03825 24.1987 6.15492 23.312 5.76992C23.1725 5.70862 23.0319 5.64973 22.8904 5.59325C21.992 5.23825 21.332 4.40992 21.332 3.44825Z" stroke="#1B5E20" stroke-width="2"/>
<path d="M24.6654 17.9999C24.6654 19.768 23.963 21.4637 22.7127 22.714C21.4625 23.9642 19.7668 24.6666 17.9987 24.6666C16.2306 24.6666 14.5349 23.9642 13.2847 22.714C12.0344 21.4637 11.332 19.768 11.332 17.9999C11.332 16.2318 12.0344 14.5361 13.2847 13.2859C14.5349 12.0356 16.2306 11.3333 17.9987 11.3333C19.7668 11.3333 21.4625 12.0356 22.7127 13.2859C23.963 14.5361 24.6654 16.2318 24.6654 17.9999Z" stroke="#1B5E20" stroke-width="2"/>
</svg>
