<svg width="38" height="38" viewBox="0 0 38 38" fill="none" xmlns="http://www.w3.org/2000/svg">
<path d="M10.25 10.2499L16.5 16.4999M10.25 10.2499L13.1667 7.33321V6.91655L10.7667 5.91655C9.04169 5.19768 7.42597 4.24059 5.96667 3.07321L4 1.49988H3.58333L1.5 3.58321V3.99988L3.07333 5.96655C4.24071 7.42585 5.1978 9.04157 5.91667 10.7665L6.91667 13.1665H7.33333L10.25 10.2499ZM21.89 27.3332C24.5047 30.3003 27.0152 33.3577 29.4167 36.4999H29.8333L36.5 29.8332V29.4165C36.5 29.4165 32.3833 26.3299 27.3333 21.8899M28.1667 18.1665C29.5506 18.1669 30.9128 17.8227 32.1303 17.1648C33.3479 16.507 34.3824 15.5563 35.1406 14.3986C35.8987 13.2408 36.3566 11.9125 36.4729 10.5335C36.5892 9.15449 36.3602 7.76824 35.8067 6.49988H34.8333L29.8333 11.4999H26.5V8.16655L31.5 3.16655V2.19321C30.0062 1.54011 28.3536 1.33955 26.7469 1.61636C25.1402 1.89317 23.65 2.6352 22.4608 3.75055C21.2717 4.8659 20.4358 6.30557 20.0568 7.89126C19.6777 9.47694 19.7721 11.139 20.3283 12.6715L17.3333 15.6665C9.83333 23.1665 1.5 29.4165 1.5 29.4165V29.8332L8.16667 36.4999H8.58333C8.58333 36.4999 14.8333 28.1665 22.3333 20.6665L25.3283 17.6715C26.2385 18.0001 27.199 18.1676 28.1667 18.1665Z" stroke="#1B5E20" stroke-width="2"/>
</svg>
