<svg width="30" height="30" viewBox="0 0 30 30" fill="none" xmlns="http://www.w3.org/2000/svg">
<path d="M3.8845 0.453407C4.92441 0.0825709 6.0482 0.0144611 7.12529 0.256993C8.20237 0.499525 9.1885 1.04274 9.9691 1.82351C10.7497 2.60428 11.2927 3.59054 11.535 4.66767C11.7773 5.7448 11.7089 6.86858 11.3378 7.90841L29.4128 25.9834L25.8762 29.5201L7.80117 11.4451C6.76109 11.8161 5.63705 11.8843 4.55974 11.6417C3.48243 11.3992 2.49611 10.8558 1.71544 10.0748C0.934764 9.29373 0.391819 8.30716 0.149724 7.22975C-0.0923715 6.15233 -0.0236714 5.02832 0.347837 3.98841L4.0745 7.71674C4.54601 8.17214 5.17752 8.42412 5.83301 8.41843C6.4885 8.41273 7.11553 8.14981 7.57905 7.68629C8.04257 7.22277 8.30549 6.59573 8.31119 5.94024C8.31689 5.28475 8.0649 4.65324 7.6095 4.18174L3.8845 0.453407ZM21.1628 3.59174L26.4662 0.645073L28.8228 3.00341L25.8762 8.30674L22.9295 8.89507L19.3962 12.4301L17.0378 10.0734L20.5728 6.53841L21.1628 3.59174ZM9.37784 16.5551L12.9128 20.0917L4.66284 28.3417C4.2079 28.7924 3.59737 29.0513 2.95714 29.0651C2.31691 29.0789 1.69581 28.8464 1.22193 28.4157C0.748039 27.985 0.457499 27.3889 0.410223 26.7502C0.362946 26.1116 0.562538 25.4792 0.967837 24.9834L1.1295 24.8051L9.37784 16.5551Z" fill="#1B5E20"/>
</svg>
