<svg width="36" height="35" viewBox="0 0 36 35" fill="none" xmlns="http://www.w3.org/2000/svg">
<path fill-rule="evenodd" clip-rule="evenodd" d="M25 2.5V5.31667L28.3333 7.98333V2.5H25ZM30.8333 9.98333V2.08333C30.8333 0.933333 29.9 0 28.75 0H24.5833C23.4333 0 22.5 0.933333 22.5 2.08333V3.31667L21.8217 2.77333C20.7134 1.88644 19.3362 1.40324 17.9167 1.40324C16.4972 1.40324 15.12 1.88644 14.0117 2.77333L0.47 13.6067C0.210972 13.8138 0.044819 14.1153 0.00809312 14.4449C-0.0286328 14.7745 0.0670768 15.1051 0.274167 15.3642C0.481257 15.6232 0.782763 15.7893 1.11236 15.8261C1.44195 15.8628 1.77264 15.7671 2.03167 15.56L3.33333 14.5167V31.6667H1.25C0.918479 31.6667 0.600537 31.7984 0.366117 32.0328C0.131696 32.2672 0 32.5851 0 32.9167C0 33.2482 0.131696 33.5661 0.366117 33.8006C0.600537 34.035 0.918479 34.1667 1.25 34.1667H34.5833C34.9149 34.1667 35.2328 34.035 35.4672 33.8006C35.7016 33.5661 35.8333 33.2482 35.8333 32.9167C35.8333 32.5851 35.7016 32.2672 35.4672 32.0328C35.2328 31.7984 34.9149 31.6667 34.5833 31.6667H32.5V14.5167L33.8033 15.56C34.0628 15.7622 34.3915 15.854 34.7182 15.8154C35.0448 15.7769 35.3431 15.6111 35.5484 15.3541C35.7537 15.0971 35.8494 14.7695 35.8147 14.4424C35.7801 14.1153 35.6179 13.815 35.3633 13.6067L30.8333 9.98333ZM30 12.5167L20.26 4.725C19.595 4.1927 18.7685 3.90268 17.9167 3.90268C17.0648 3.90268 16.2384 4.1927 15.5733 4.725L5.83333 12.5167V31.6667H11.6667V24.5C11.6667 23.3933 11.6667 22.4383 11.77 21.6733C11.88 20.8533 12.1283 20.0683 12.765 19.4317C13.4017 18.795 14.1883 18.5467 15.0067 18.4367C15.7717 18.3333 16.7267 18.3333 17.835 18.3333H17.9983C19.1067 18.3333 20.0617 18.3333 20.8267 18.4367C21.6467 18.5467 22.4317 18.795 23.0683 19.4317C23.705 20.0683 23.9533 20.8533 24.0633 21.6733C24.1667 22.4383 24.1667 23.3933 24.1667 24.5017V31.6667H30V12.5167ZM21.6667 31.6667V24.5833C21.6667 23.37 21.6633 22.5833 21.5867 22.0067C21.5133 21.465 21.3967 21.295 21.3 21.2C21.2033 21.105 21.035 20.9867 20.4933 20.9133C19.915 20.8367 19.13 20.8333 17.9167 20.8333C16.7033 20.8333 15.9167 20.8367 15.34 20.9133C14.7983 20.9867 14.6283 21.105 14.5333 21.2C14.4383 21.295 14.32 21.465 14.2467 22.0067C14.17 22.585 14.1667 23.37 14.1667 24.5833V31.6667H21.6667ZM17.9167 10C17.6431 10 17.3722 10.0539 17.1194 10.1586C16.8666 10.2633 16.637 10.4167 16.4435 10.6102C16.2501 10.8036 16.0966 11.0333 15.9919 11.2861C15.8872 11.5388 15.8333 11.8097 15.8333 12.0833C15.8333 12.3569 15.8872 12.6278 15.9919 12.8806C16.0966 13.1334 16.2501 13.363 16.4435 13.5565C16.637 13.7499 16.8666 13.9034 17.1194 14.0081C17.3722 14.1128 17.6431 14.1667 17.9167 14.1667C18.4692 14.1667 18.9991 13.9472 19.3898 13.5565C19.7805 13.1658 20 12.6359 20 12.0833C20 11.5308 19.7805 11.0009 19.3898 10.6102C18.9991 10.2195 18.4692 10 17.9167 10ZM13.3333 12.0833C13.3333 10.8678 13.8162 9.70197 14.6758 8.84243C15.5353 7.98289 16.7011 7.5 17.9167 7.5C19.1322 7.5 20.298 7.98289 21.1576 8.84243C22.0171 9.70197 22.5 10.8678 22.5 12.0833C22.5 13.2989 22.0171 14.4647 21.1576 15.3242C20.298 16.1838 19.1322 16.6667 17.9167 16.6667C16.7011 16.6667 15.5353 16.1838 14.6758 15.3242C13.8162 14.4647 13.3333 13.2989 13.3333 12.0833Z" fill="#1B5E20"/>
</svg>
