<svg width="36" height="36" viewBox="0 0 36 36" fill="none" xmlns="http://www.w3.org/2000/svg">
<path d="M7.9987 16.3333H2.9987C1.9987 16.3333 1.33203 15.6666 1.33203 14.6666V7.99992C1.33203 6.16659 2.66536 4.16659 4.4987 3.66659L11.332 1.33325C11.332 3.10136 12.0344 4.79705 13.2847 6.0473C14.5349 7.29754 16.2306 7.99992 17.9987 7.99992C19.7668 7.99992 21.4625 7.29754 22.7127 6.0473C23.963 4.79705 24.6654 3.10136 24.6654 1.33325L31.4987 3.66659C33.332 4.16659 34.6654 6.16659 34.6654 7.99992V14.6666C34.6654 15.6666 33.9987 16.3333 32.9987 16.3333H27.9987" stroke="#1B5E20" stroke-width="2" stroke-linecap="round" stroke-linejoin="round"/>
<path d="M28 11.3333V32.9999C28 33.9999 27.3333 34.6666 26.3333 34.6666H9.66667C8.66667 34.6666 8 33.9999 8 32.9999V11.3333" stroke="#1B5E20" stroke-width="2" stroke-linecap="round" stroke-linejoin="round"/>
</svg>
