<svg width="40" height="31" viewBox="0 0 40 31" fill="none" xmlns="http://www.w3.org/2000/svg">
<path d="M5.45977e-09 3.75C5.45977e-09 2.75544 0.395088 1.80161 1.09835 1.09835C1.80161 0.395088 2.75544 0 3.75 0H26.25C27.2446 0 28.1984 0.395088 28.9017 1.09835C29.6049 1.80161 30 2.75544 30 3.75V7.5H32.55C33.1119 7.5005 33.6664 7.62725 34.1727 7.87087C34.679 8.11449 35.124 8.46876 35.475 8.9075L39.1775 13.5325C39.7102 14.198 40.0003 15.0251 40 15.8775V21.25C40 22.2446 39.6049 23.1984 38.9016 23.9017C38.1984 24.6049 37.2446 25 36.25 25H35C35 26.3261 34.4732 27.5979 33.5355 28.5355C32.5979 29.4732 31.3261 30 30 30C28.6739 30 27.4021 29.4732 26.4645 28.5355C25.5268 27.5979 25 26.3261 25 25H12.5C12.5014 25.6665 12.3696 26.3265 12.1123 26.9413C11.855 27.5561 11.4774 28.1132 11.0016 28.5799C10.5259 29.0467 9.96164 29.4136 9.34205 29.6591C8.72246 29.9046 8.06004 30.0238 7.39373 30.0097C6.72742 29.9955 6.07067 29.8483 5.46207 29.5766C4.85348 29.305 4.30534 28.9144 3.84987 28.4279C3.3944 27.9413 3.04079 27.3687 2.80984 26.7435C2.57888 26.1183 2.47524 25.4533 2.505 24.7875C1.77262 24.5297 1.13831 24.051 0.689611 23.4173C0.240914 22.7837 -4.18799e-05 22.0264 5.45977e-09 21.25L5.45977e-09 3.75ZM3.235 22.39C3.68748 21.6506 4.32442 21.0415 5.08332 20.6226C5.84222 20.2036 6.697 19.9892 7.56379 20.0003C8.43058 20.0114 9.27959 20.2476 10.0275 20.6859C10.7754 21.1241 11.3966 21.7493 11.83 22.5H25.67C26.1088 21.74 26.74 21.1088 27.5 20.67V3.75C27.5 3.41848 27.3683 3.10054 27.1339 2.86612C26.8995 2.6317 26.5815 2.5 26.25 2.5H3.75C3.41848 2.5 3.10054 2.6317 2.86612 2.86612C2.6317 3.10054 2.5 3.41848 2.5 3.75V21.25C2.4998 21.4906 2.56905 21.7262 2.69943 21.9284C2.8298 22.1306 3.01577 22.2909 3.235 22.39ZM30 20C30.8777 20 31.7399 20.2311 32.4999 20.6699C33.26 21.1087 33.8912 21.7399 34.33 22.5H36.25C36.5815 22.5 36.8995 22.3683 37.1339 22.1339C37.3683 21.8995 37.5 21.5815 37.5 21.25V15.875C37.4995 15.5913 37.4025 15.3163 37.225 15.095L33.525 10.47C33.4081 10.3236 33.2598 10.2054 33.091 10.124C32.9222 10.0426 32.7374 10.0003 32.55 10H30V20ZM7.5 22.5C6.83696 22.5 6.20107 22.7634 5.73223 23.2322C5.26339 23.7011 5 24.337 5 25C5 25.663 5.26339 26.2989 5.73223 26.7678C6.20107 27.2366 6.83696 27.5 7.5 27.5C8.16304 27.5 8.79893 27.2366 9.26777 26.7678C9.73661 26.2989 10 25.663 10 25C10 24.337 9.73661 23.7011 9.26777 23.2322C8.79893 22.7634 8.16304 22.5 7.5 22.5ZM30 22.5C29.337 22.5 28.7011 22.7634 28.2322 23.2322C27.7634 23.7011 27.5 24.337 27.5 25C27.5 25.663 27.7634 26.2989 28.2322 26.7678C28.7011 27.2366 29.337 27.5 30 27.5C30.663 27.5 31.2989 27.2366 31.7678 26.7678C32.2366 26.2989 32.5 25.663 32.5 25C32.5 24.337 32.2366 23.7011 31.7678 23.2322C31.2989 22.7634 30.663 22.5 30 22.5Z" fill="#1B5E20"/>
</svg>
